<mxfile host="app.diagrams.net" modified="2021-02-26T02:50:11.026Z" agent="5.0 (X11; Linux x86_64) AppleWebKit/537.36 (KHTML, like Gecko) Chrome/88.0.4324.182 Safari/537.36" etag="6PvWk-3_3DoOzFInwSpc" version="14.4.3" type="github">
  <diagram id="C_m69w48bF166tJYoP3L" name="Page-1">
    <mxGraphModel dx="1373" dy="703" grid="1" gridSize="10" guides="1" tooltips="1" connect="1" arrows="1" fold="1" page="1" pageScale="1" pageWidth="850" pageHeight="1100" math="0" shadow="0">
      <root>
        <mxCell id="0" />
        <mxCell id="1" parent="0" />
        <mxCell id="vbBO0BXcKdY3l6zNPFnY-8" style="edgeStyle=orthogonalEdgeStyle;rounded=0;orthogonalLoop=1;jettySize=auto;html=1;exitX=0;exitY=1;exitDx=0;exitDy=0;entryX=0.5;entryY=1;entryDx=0;entryDy=0;curved=1;fontSize=18;" parent="1" source="vbBO0BXcKdY3l6zNPFnY-1" target="vbBO0BXcKdY3l6zNPFnY-2" edge="1">
          <mxGeometry relative="1" as="geometry" />
        </mxCell>
        <mxCell id="vbBO0BXcKdY3l6zNPFnY-9" style="edgeStyle=orthogonalEdgeStyle;rounded=0;orthogonalLoop=1;jettySize=auto;html=1;exitX=1;exitY=0;exitDx=0;exitDy=0;entryX=0.726;entryY=0.967;entryDx=0;entryDy=0;entryPerimeter=0;curved=1;fontSize=18;" parent="1" source="vbBO0BXcKdY3l6zNPFnY-1" target="vbBO0BXcKdY3l6zNPFnY-2" edge="1">
          <mxGeometry relative="1" as="geometry" />
        </mxCell>
        <mxCell id="vbBO0BXcKdY3l6zNPFnY-10" style="edgeStyle=orthogonalEdgeStyle;rounded=0;orthogonalLoop=1;jettySize=auto;html=1;exitX=1;exitY=0;exitDx=0;exitDy=0;entryX=0.5;entryY=1;entryDx=0;entryDy=0;curved=1;fontSize=18;" parent="1" source="vbBO0BXcKdY3l6zNPFnY-1" target="vbBO0BXcKdY3l6zNPFnY-3" edge="1">
          <mxGeometry relative="1" as="geometry" />
        </mxCell>
        <mxCell id="vbBO0BXcKdY3l6zNPFnY-11" value="&lt;font style=&quot;font-size: 18px;&quot;&gt;&amp;lt;&amp;lt;json from websockets&amp;gt;&amp;gt;&lt;/font&gt;" style="edgeLabel;html=1;align=center;verticalAlign=middle;resizable=0;points=[];fontSize=18;" parent="vbBO0BXcKdY3l6zNPFnY-10" vertex="1" connectable="0">
          <mxGeometry x="0.4876" y="8" relative="1" as="geometry">
            <mxPoint as="offset" />
          </mxGeometry>
        </mxCell>
        <mxCell id="vbBO0BXcKdY3l6zNPFnY-12" value="&lt;font style=&quot;font-size: 18px;&quot;&gt;&amp;lt;&amp;lt;authentication&lt;br style=&quot;font-size: 18px;&quot;&gt;tocken&amp;gt;&amp;gt;&lt;/font&gt;" style="edgeLabel;html=1;align=center;verticalAlign=middle;resizable=0;points=[];fontSize=18;" parent="vbBO0BXcKdY3l6zNPFnY-10" vertex="1" connectable="0">
          <mxGeometry x="0.4876" y="8" relative="1" as="geometry">
            <mxPoint x="-232" y="-82.42" as="offset" />
          </mxGeometry>
        </mxCell>
        <mxCell id="vbBO0BXcKdY3l6zNPFnY-13" value="&lt;font style=&quot;font-size: 18px;&quot;&gt;&amp;lt;&amp;lt;json from websockets&amp;gt;&amp;gt;&lt;/font&gt;" style="edgeLabel;html=1;align=center;verticalAlign=middle;resizable=0;points=[];fontSize=18;" parent="vbBO0BXcKdY3l6zNPFnY-10" vertex="1" connectable="0">
          <mxGeometry x="0.4876" y="8" relative="1" as="geometry">
            <mxPoint x="-422" y="47.579999999999984" as="offset" />
          </mxGeometry>
        </mxCell>
        <mxCell id="vbBO0BXcKdY3l6zNPFnY-14" value="&lt;font style=&quot;font-size: 18px;&quot;&gt;&amp;lt;&amp;lt;http request&amp;gt;&amp;gt;&lt;/font&gt;" style="edgeLabel;html=1;align=center;verticalAlign=middle;resizable=0;points=[];fontSize=18;" parent="vbBO0BXcKdY3l6zNPFnY-10" vertex="1" connectable="0">
          <mxGeometry x="0.4876" y="8" relative="1" as="geometry">
            <mxPoint x="-352" y="-2.419999999999959" as="offset" />
          </mxGeometry>
        </mxCell>
        <mxCell id="vbBO0BXcKdY3l6zNPFnY-1" value="&lt;font style=&quot;font-size: 18px;&quot;&gt;relay&lt;br style=&quot;font-size: 18px;&quot;&gt;server&lt;br style=&quot;font-size: 18px;&quot;&gt;&lt;/font&gt;" style="ellipse;whiteSpace=wrap;html=1;aspect=fixed;fontSize=18;" parent="1" vertex="1">
          <mxGeometry x="400" y="370" width="80" height="80" as="geometry" />
        </mxCell>
        <mxCell id="vbBO0BXcKdY3l6zNPFnY-7" style="edgeStyle=orthogonalEdgeStyle;rounded=0;orthogonalLoop=1;jettySize=auto;html=1;exitX=1;exitY=1;exitDx=0;exitDy=0;entryX=0.5;entryY=0;entryDx=0;entryDy=0;curved=1;fontSize=18;" parent="1" source="vbBO0BXcKdY3l6zNPFnY-2" target="vbBO0BXcKdY3l6zNPFnY-1" edge="1">
          <mxGeometry relative="1" as="geometry" />
        </mxCell>
        <mxCell id="vbBO0BXcKdY3l6zNPFnY-2" value="&lt;font style=&quot;font-size: 18px;&quot;&gt;user&lt;/font&gt;" style="ellipse;whiteSpace=wrap;html=1;aspect=fixed;fontSize=18;" parent="1" vertex="1">
          <mxGeometry x="110" y="130" width="80" height="80" as="geometry" />
        </mxCell>
        <mxCell id="vbBO0BXcKdY3l6zNPFnY-3" value="&lt;font style=&quot;font-size: 18px;&quot;&gt;model&lt;/font&gt;" style="ellipse;whiteSpace=wrap;html=1;aspect=fixed;fontSize=18;" parent="1" vertex="1">
          <mxGeometry x="600" y="190" width="80" height="80" as="geometry" />
        </mxCell>
      </root>
    </mxGraphModel>
  </diagram>
</mxfile>
